<svg xmlns="http://www.w3.org/2000/svg" width="512" height="512" viewBox="0 0 512 512">
  <defs>
    <linearGradient id="phBg" x1="0" y1="0" x2="1" y2="1">
      <stop offset="0" stop-color="#34d399"/>
      <stop offset="1" stop-color="#059669"/>
    </linearGradient>
  </defs>
  <rect width="512" height="512" rx="128" fill="url(#phBg)"/>
  <ellipse cx="170" cy="120" rx="200" ry="120" fill="#ffffff" opacity="0.14"/>

  <!-- flask liquid -->
  <path d="M192.3 305 H319.7 L328 322 C336 340 324 360 304 360 H208 C188 360 176 340 184 322 Z" fill="#ffffff" opacity="0.4"/>
  <!-- flask outline -->
  <path d="M236 162 V216 L184 322 C176 340 188 360 208 360 H304 C324 360 336 340 328 322 L276 216 V162"
        fill="none" stroke="#ffffff" stroke-width="18" stroke-linejoin="round"/>
  <!-- rim -->
  <path d="M220 158 H292" stroke="#ffffff" stroke-width="18" stroke-linecap="round"/>
  <!-- bubbles -->
  <circle cx="232" cy="330" r="9" fill="#ffffff" opacity="0.85"/>
  <circle cx="276" cy="342" r="7" fill="#ffffff" opacity="0.7"/>
</svg>
